REM DIRINDEX 1\2,1\3,1\4,1\5\6,1\5\7,1\8
REM DIRNAME cjc115,folder01,folder02,folder03,folder04,folder05,folder06,folder07
TITLE ""
FILE "161 【161】Unit9 (DATA FILE_語彙力を高める接頭辞・接尾辞3).mp3" MP3
  TRACK 01 AUDIO
    TITLE "0:"
    INDEX 01 00:00:00
  TRACK 02 AUDIO
    TITLE "8:cjc115_6280"
    INDEX 01 00:00:01
  TRACK 03 AUDIO
    TITLE "0:"
    INDEX 01 00:01:30
  TRACK 04 AUDIO
    TITLE "6:cjc115_6281"
    INDEX 01 00:02:02
  TRACK 05 AUDIO
    TITLE "0:"
    INDEX 01 00:03:35
  TRACK 06 AUDIO
    TITLE "7:cjc115_6282"
    INDEX 01 00:03:43
  TRACK 07 AUDIO
    TITLE "0:"
    INDEX 01 00:06:57
  TRACK 08 AUDIO
    TITLE "6:cjc115_6283"
    INDEX 01 00:07:68
  TRACK 09 AUDIO
    TITLE "0:"
    INDEX 01 00:09:20
  TRACK 10 AUDIO
    TITLE "7:cjc115_6284"
    INDEX 01 00:09:28
  TRACK 11 AUDIO
    TITLE "0:"
    INDEX 01 00:10:72
  TRACK 12 AUDIO
    TITLE "6:cjc115_6285"
    INDEX 01 00:12:05
  TRACK 13 AUDIO
    TITLE "0:"
    INDEX 01 00:13:39
  TRACK 14 AUDIO
    TITLE "7:cjc115_6286"
    INDEX 01 00:13:45
  TRACK 15 AUDIO
    TITLE "0:"
    INDEX 01 00:16:06
  TRACK 16 AUDIO
    TITLE "6:cjc115_6287"
    INDEX 01 00:17:14
  TRACK 17 AUDIO
    TITLE "0:"
    INDEX 01 00:18:39
  TRACK 18 AUDIO
    TITLE "7:cjc115_6288"
    INDEX 01 00:18:48
  TRACK 19 AUDIO
    TITLE "0:"
    INDEX 01 00:21:15
  TRACK 20 AUDIO
    TITLE "6:cjc115_6289"
    INDEX 01 00:22:21
  TRACK 21 AUDIO
    TITLE "0:"
    INDEX 01 00:23:36
  TRACK 22 AUDIO
    TITLE "7:cjc115_6290"
    INDEX 01 00:23:48
  TRACK 23 AUDIO
    TITLE "0:"
    INDEX 01 00:26:03
  TRACK 24 AUDIO
    TITLE "6:cjc115_6291"
    INDEX 01 00:27:12
  TRACK 25 AUDIO
    TITLE "0:"
    INDEX 01 00:28:41
  TRACK 26 AUDIO
    TITLE "7:cjc115_6292"
    INDEX 01 00:28:49
  TRACK 27 AUDIO
    TITLE "0:"
    INDEX 01 00:30:63
  TRACK 28 AUDIO
    TITLE "6:cjc115_6293"
    INDEX 01 00:32:00
  TRACK 29 AUDIO
    TITLE "0:"
    INDEX 01 00:33:21
  TRACK 30 AUDIO
    TITLE "7:cjc115_6294"
    INDEX 01 00:33:26
  TRACK 31 AUDIO
    TITLE "0:"
    INDEX 01 00:35:53
  TRACK 32 AUDIO
    TITLE "6:cjc115_6295"
    INDEX 01 00:36:64
  TRACK 33 AUDIO
    TITLE "0:"
    INDEX 01 00:38:18
  TRACK 34 AUDIO
    TITLE "7:cjc115_6296"
    INDEX 01 00:38:22
  TRACK 35 AUDIO
    TITLE "0:"
    INDEX 01 00:40:68
  TRACK 36 AUDIO
    TITLE "6:cjc115_6297"
    INDEX 01 00:41:69
  TRACK 37 AUDIO
    TITLE "0:"
    INDEX 01 00:43:33
  TRACK 38 AUDIO
    TITLE "7:cjc115_6298"
    INDEX 01 00:43:42
  TRACK 39 AUDIO
    TITLE "0:"
    INDEX 01 00:44:54
  TRACK 40 AUDIO
    TITLE "6:cjc115_6299"
    INDEX 01 00:45:65
  TRACK 41 AUDIO
    TITLE "0:"
    INDEX 01 00:47:21
  TRACK 42 AUDIO
    TITLE "7:cjc115_6300"
    INDEX 01 00:47:27
  TRACK 43 AUDIO
    TITLE "0:"
    INDEX 01 00:48:61
  TRACK 44 AUDIO
    TITLE "6:cjc115_6301"
    INDEX 01 00:49:72
  TRACK 45 AUDIO
    TITLE "0:"
    INDEX 01 00:51:20
  TRACK 46 AUDIO
    TITLE "7:cjc115_6302"
    INDEX 01 00:51:30
  TRACK 47 AUDIO
    TITLE "0:"
    INDEX 01 00:53:57
  TRACK 48 AUDIO
    TITLE "6:cjc115_6303"
    INDEX 01 00:54:68
  TRACK 49 AUDIO
    TITLE "0:"
    INDEX 01 00:56:31
  TRACK 50 AUDIO
    TITLE "7:cjc115_6304"
    INDEX 01 00:56:39
  TRACK 51 AUDIO
    TITLE "0:"
    INDEX 01 00:59:36
  TRACK 52 AUDIO
    TITLE "6:cjc115_6305"
    INDEX 01 01:00:45
  TRACK 53 AUDIO
    TITLE "0:"
    INDEX 01 01:01:68
  TRACK 54 AUDIO
    TITLE "7:cjc115_6306"
    INDEX 01 01:02:03
  TRACK 55 AUDIO
    TITLE "0:"
    INDEX 01 01:04:45
  TRACK 56 AUDIO
    TITLE "6:cjc115_6307"
    INDEX 01 01:05:58
  TRACK 57 AUDIO
    TITLE "0:"
    INDEX 01 01:06:71
  TRACK 58 AUDIO
    TITLE "7:cjc115_6308"
    INDEX 01 01:07:04
  TRACK 59 AUDIO
    TITLE "0:"
    INDEX 01 01:09:22
  TRACK 60 AUDIO
    TITLE "6:cjc115_6309"
    INDEX 01 01:10:31
  TRACK 61 AUDIO
    TITLE "0:"
    INDEX 01 01:11:60
  TRACK 62 AUDIO
    TITLE "7:cjc115_6310"
    INDEX 01 01:11:70
  TRACK 63 AUDIO
    TITLE "0:"
    INDEX 01 01:14:66
  TRACK 64 AUDIO
    TITLE "6:cjc115_6311"
    INDEX 01 01:15:72
  TRACK 65 AUDIO
    TITLE "0:"
    INDEX 01 01:17:37
  TRACK 66 AUDIO
    TITLE "7:cjc115_6312"
    INDEX 01 01:17:45
  TRACK 67 AUDIO
    TITLE "0:"
    INDEX 01 01:18:68
  TRACK 68 AUDIO
    TITLE "6:cjc115_6313"
    INDEX 01 01:20:02
  TRACK 69 AUDIO
    TITLE "0:"
    INDEX 01 01:21:33
  TRACK 70 AUDIO
    TITLE "7:cjc115_6314"
    INDEX 01 01:21:43
  TRACK 71 AUDIO
    TITLE "0:"
    INDEX 01 01:24:20
  TRACK 72 AUDIO
    TITLE "6:cjc115_6315"
    INDEX 01 01:25:33
  TRACK 73 AUDIO
    TITLE "0:"
    INDEX 01 01:26:54
  TRACK 74 AUDIO
    TITLE "7:cjc115_6316"
    INDEX 01 01:26:70
  TRACK 75 AUDIO
    TITLE "0:"
    INDEX 01 01:28:57
  TRACK 76 AUDIO
    TITLE "6:cjc115_6317"
    INDEX 01 01:29:68
  TRACK 77 AUDIO
    TITLE "0:"
    INDEX 01 01:31:14
  TRACK 78 AUDIO
    TITLE "7:cjc115_6318"
    INDEX 01 01:31:20
  TRACK 79 AUDIO
    TITLE "0:"
    INDEX 01 01:33:66
  TRACK 80 AUDIO
    TITLE "6:cjc115_6319"
    INDEX 01 01:35:02
  TRACK 81 AUDIO
    TITLE "0:"
    INDEX 01 01:36:27
  TRACK 82 AUDIO
    TITLE "7:cjc115_6320"
    INDEX 01 01:36:37
  TRACK 83 AUDIO
    TITLE "0:"
    INDEX 01 01:38:63
  TRACK 84 AUDIO
    TITLE "6:cjc115_6321"
    INDEX 01 01:39:72
  TRACK 85 AUDIO
    TITLE "0:"
    INDEX 01 01:41:30
  TRACK 86 AUDIO
    TITLE "7:cjc115_6322"
    INDEX 01 01:41:42
  TRACK 87 AUDIO
    TITLE "0:"
    INDEX 01 01:44:68
  TRACK 88 AUDIO
    TITLE "6:cjc115_6323"
    INDEX 01 01:46:02
  TRACK 89 AUDIO
    TITLE "0:"
    INDEX 01 01:47:21
  TRACK 90 AUDIO
    TITLE "7:cjc115_6324"
    INDEX 01 01:47:31
  TRACK 91 AUDIO
    TITLE "0:"
    INDEX 01 01:48:56
  TRACK 92 AUDIO
    TITLE "6:cjc115_6325"
    INDEX 01 01:49:67
  TRACK 93 AUDIO
    TITLE "0:"
    INDEX 01 01:51:17
  TRACK 94 AUDIO
    TITLE "7:cjc115_6326"
    INDEX 01 01:51:32
  TRACK 95 AUDIO
    TITLE "0:"
    INDEX 01 01:54:05
  TRACK 96 AUDIO
    TITLE "6:cjc115_6327"
    INDEX 01 01:55:15
  TRACK 97 AUDIO
    TITLE "0:"
    INDEX 01 01:56:41
  TRACK 98 AUDIO
    TITLE "7:cjc115_6328"
    INDEX 01 01:56:55
  TRACK 99 AUDIO
    TITLE "0:"
    INDEX 01 01:58:66
  TRACK 100 AUDIO
    TITLE "6:cjc115_6329"
    INDEX 01 01:59:73
  TRACK 101 AUDIO
    TITLE "0:"
    INDEX 01 02:01:27
  TRACK 102 AUDIO
    TITLE "7:cjc115_6330"
    INDEX 01 02:01:35
  TRACK 103 AUDIO
    TITLE "0:"
    INDEX 01 02:02:56
  TRACK 104 AUDIO
    TITLE "6:cjc115_6331"
    INDEX 01 02:03:67
  TRACK 105 AUDIO
    TITLE "0:"
    INDEX 01 02:05:21
  TRACK 106 AUDIO
    TITLE "7:cjc115_6332"
    INDEX 01 02:05:27
  TRACK 107 AUDIO
    TITLE "0:"
    INDEX 01 02:07:39
  TRACK 108 AUDIO
    TITLE "6:cjc115_6333"
    INDEX 01 02:08:47
  TRACK 109 AUDIO
    TITLE "0:"
    INDEX 01 02:10:02
  TRACK 110 AUDIO
    TITLE "7:cjc115_6334"
    INDEX 01 02:10:12
  TRACK 111 AUDIO
    TITLE "0:"
    INDEX 01 02:11:72
  TRACK 112 AUDIO
    TITLE "6:cjc115_6335"
    INDEX 01 02:13:09
  TRACK 113 AUDIO
    TITLE "0:"
    INDEX 01 02:14:31
  TRACK 114 AUDIO
    TITLE "7:cjc115_6336"
    INDEX 01 02:14:35
  TRACK 115 AUDIO
    TITLE "0:"
    INDEX 01 02:15:74
  TRACK 116 AUDIO
    TITLE "6:cjc115_6337"
    INDEX 01 02:17:10
  TRACK 117 AUDIO
    TITLE "0:"
    INDEX 01 02:18:35
  TRACK 118 AUDIO
    TITLE "7:cjc115_6338"
    INDEX 01 02:18:43
  TRACK 119 AUDIO
    TITLE "0:"
    INDEX 01 02:21:12
  TRACK 120 AUDIO
    TITLE "6:cjc115_6339"
    INDEX 01 02:22:25
  TRACK 121 AUDIO
    TITLE "0:"
    INDEX 01 02:23:56
  TRACK 122 AUDIO
    TITLE "7:cjc115_6340"
    INDEX 01 02:23:66
  TRACK 123 AUDIO
    TITLE "0:"
    INDEX 01 02:25:72
  TRACK 124 AUDIO
    TITLE "6:cjc115_6341"
    INDEX 01 02:27:05
  TRACK 125 AUDIO
    TITLE "0:"
    INDEX 01 02:28:30
  TRACK 126 AUDIO
    TITLE "7:cjc115_6342"
    INDEX 01 02:28:49
  TRACK 127 AUDIO
    TITLE "0:"
    INDEX 01 02:31:18
  TRACK 128 AUDIO
    TITLE "6:cjc115_6343"
    INDEX 01 02:32:31
  TRACK 129 AUDIO
    TITLE "0:"
    INDEX 01 02:33:74
  TRACK 130 AUDIO
    TITLE "7:cjc115_6344"
    INDEX 01 02:34:09
  TRACK 131 AUDIO
    TITLE "0:"
    INDEX 01 02:37:38
  TRACK 132 AUDIO
    TITLE "6:cjc115_6345"
    INDEX 01 02:38:48
  TRACK 133 AUDIO
    TITLE "0:"
    INDEX 01 02:41:42
  TRACK 134 AUDIO
    TITLE "7:cjc115_6346"
    INDEX 01 02:41:54
  TRACK 135 AUDIO
    TITLE "0:"
    INDEX 01 02:43:45
  TRACK 136 AUDIO
    TITLE "6:cjc115_6347"
    INDEX 01 02:44:54
  TRACK 137 AUDIO
    TITLE "0:"
    INDEX 01 02:46:18
  TRACK 138 AUDIO
    TITLE "7:cjc115_6348"
    INDEX 01 02:46:30
  TRACK 139 AUDIO
    TITLE "0:"
    INDEX 01 02:49:36
  TRACK 140 AUDIO
    TITLE "6:cjc115_6349"
    INDEX 01 02:50:41
  TRACK 141 AUDIO
    TITLE "0:"
    INDEX 01 02:51:74
  TRACK 142 AUDIO
    TITLE "7:cjc115_6350"
    INDEX 01 02:52:07
  TRACK 143 AUDIO
    TITLE "0:"
    INDEX 01 02:54:27
  TRACK 144 AUDIO
    TITLE "6:cjc115_6351"
    INDEX 01 02:55:34
  TRACK 145 AUDIO
    TITLE "0:"
    INDEX 01 02:56:67
  TRACK 146 AUDIO
    TITLE "7:cjc115_6352"
    INDEX 01 02:57:00
  TRACK 147 AUDIO
    TITLE "0:"
    INDEX 01 02:59:62
  TRACK 148 AUDIO
    TITLE "6:cjc115_6353"
    INDEX 01 03:00:73
  TRACK 149 AUDIO
    TITLE "0:"
    INDEX 01 03:02:50
  TRACK 150 AUDIO
    TITLE "7:cjc115_6354"
    INDEX 01 03:02:58
  TRACK 151 AUDIO
    TITLE "0:"
    INDEX 01 03:05:27
  TRACK 152 AUDIO
    TITLE "6:cjc115_6355"
    INDEX 01 03:06:38
  TRACK 153 AUDIO
    TITLE "0:"
    INDEX 01 03:08:06
  TRACK 154 AUDIO
    TITLE "7:cjc115_6356"
    INDEX 01 03:08:15
  TRACK 155 AUDIO
    TITLE "0:"
    INDEX 01 03:09:54
